<svg width="1115" height="743" xmlns="http://www.w3.org/2000/svg" xmlns:xlink="http://www.w3.org/1999/xlink" xml:space="preserve" overflow="hidden"><g transform="translate(-574 -683)"><rect x="576.5" y="965.5" width="1110" height="458" stroke="#172C51" stroke-width="4.58333" stroke-miterlimit="8" fill="none"/><path d="M956.5 803C956.5 738.107 1009.55 685.5 1075 685.5 1140.45 685.5 1193.5 738.107 1193.5 803 1193.5 867.893 1140.45 920.5 1075 920.5 1009.55 920.5 956.5 867.893 956.5 803Z" stroke="#172C51" stroke-width="4.58333" stroke-miterlimit="8" fill="none" fill-rule="evenodd"/><path d="M718.5 1194.5C718.5 1129.33 771.778 1076.5 837.5 1076.5 903.222 1076.5 956.5 1129.33 956.5 1194.5 956.5 1259.67 903.222 1312.5 837.5 1312.5 771.778 1312.5 718.5 1259.67 718.5 1194.5Z" stroke="#172C51" stroke-width="4.58333" stroke-miterlimit="8" fill="none" fill-rule="evenodd"/><path d="M1227.5 1194.5C1227.5 1129.33 1280.78 1076.5 1346.5 1076.5 1412.22 1076.5 1465.5 1129.33 1465.5 1194.5 1465.5 1259.67 1412.22 1312.5 1346.5 1312.5 1280.78 1312.5 1227.5 1259.67 1227.5 1194.5Z" stroke="#172C51" stroke-width="4.58333" stroke-miterlimit="8" fill="#AFABAB" fill-rule="evenodd"/><path d="M1266.37 820.02C1265.66 822.911 1265.16 825.653 1264.85 828.247 1264.54 830.841 1264.38 833.137 1264.38 835.137 1264.38 837.514 1264.74 839.284 1265.45 840.446 1266.17 841.608 1267.3 842.188 1268.84 842.188 1271.54 842.188 1274.09 840.284 1276.48 836.474 1278.87 832.665 1280.92 827.18 1282.62 820.02ZM1281.32 793.15C1278.56 793.15 1275.99 794.988 1273.6 798.662 1271.21 802.337 1269.16 807.754 1267.46 814.914L1283.71 814.914C1284.31 812.185 1284.77 809.672 1285.11 807.375 1285.45 805.079 1285.62 802.945 1285.62 800.972 1285.62 798.162 1285.29 796.156 1284.62 794.954 1283.96 793.752 1282.86 793.15 1281.32 793.15ZM1281.4 788.936C1286.37 788.936 1290.09 790.361 1292.55 793.211 1295.01 796.062 1296.23 800.337 1296.23 806.038 1296.23 810.037 1295.58 814.745 1294.27 820.162 1292.96 825.579 1291.11 830.28 1288.72 834.265 1286.33 838.251 1283.44 841.27 1280.06 843.323 1276.69 845.377 1272.88 846.403 1268.64 846.403 1263.69 846.403 1259.98 844.985 1257.49 842.148 1255 839.311 1253.76 835.164 1253.76 829.706 1253.76 825.707 1254.4 820.979 1255.69 815.521 1256.97 810.064 1258.8 805.322 1261.18 801.296 1263.56 797.271 1266.43 794.204 1269.81 792.097 1273.19 789.989 1277.05 788.936 1281.4 788.936Z" fill-rule="evenodd"/><text fill="#000000" fill-opacity="0" font-family="Arial,Arial_MSFontService,sans-serif" font-size="57.4678" x="1253.76" y="839.22">𝜽</text><path d="M644.31 1159.74C640.878 1159.74 638.014 1161.4 635.718 1164.7 633.421 1168.01 631.543 1173.03 630.084 1179.76L624.613 1205.17C624.478 1205.79 624.411 1206.32 624.411 1206.75 624.411 1207.48 624.579 1208.1 624.917 1208.62 625.255 1209.13 625.755 1209.64 626.417 1210.14 627.079 1210.64 627.936 1211.07 628.99 1211.43 630.044 1211.8 631.381 1211.98 633.002 1211.98 635.191 1211.98 637.183 1211.3 638.98 1209.95 640.777 1208.6 642.189 1206.68 643.215 1204.2 644.242 1201.71 644.755 1198.88 644.755 1195.69 644.755 1192.63 643.911 1190.24 642.222 1188.51 640.534 1186.79 638.122 1185.8 634.988 1185.56L635.556 1182.68C638.474 1182.46 641.108 1181.62 643.458 1180.17 645.809 1178.71 647.653 1176.8 648.99 1174.43 650.328 1172.07 650.997 1169.48 650.997 1166.67 650.997 1164.43 650.436 1162.71 649.315 1161.52 648.193 1160.33 646.525 1159.74 644.31 1159.74ZM644.715 1156.54C648.876 1156.54 652.091 1157.46 654.36 1159.31 656.63 1161.17 657.765 1163.79 657.765 1167.2 657.765 1168.58 657.569 1170.07 657.177 1171.68 656.785 1173.28 656.008 1174.86 654.847 1176.42 653.685 1177.97 652.07 1179.41 650.004 1180.73 647.937 1182.06 645.404 1183.19 642.405 1184.14L642.324 1184.46C648.754 1186.73 651.969 1190.96 651.969 1197.15 651.969 1200.33 651.26 1203.32 649.841 1206.1 648.423 1208.89 646.343 1211.09 643.6 1212.73 640.858 1214.36 637.704 1215.18 634.137 1215.18 631.841 1215.18 629.821 1215 628.078 1214.63 626.336 1214.27 624.532 1213.64 622.668 1212.75L618.331 1231.96 611.726 1231.96 623.722 1178.38C624.802 1173.57 626.261 1169.59 628.099 1166.43 629.936 1163.27 632.232 1160.83 634.988 1159.11 637.744 1157.4 640.986 1156.54 644.715 1156.54Z" fill-rule="evenodd"/><text fill="#000000" fill-opacity="0" font-family="Arial,Arial_MSFontService,sans-serif" font-size="75.4214" x="611.726" y="1222.53">𝛽</text><path d="M670.01 1201.26 671.47 1201.26 667.062 1221.1C666.784 1222.27 666.59 1223.21 666.481 1223.9 666.372 1224.6 666.317 1225.22 666.317 1225.78 666.317 1226.53 666.471 1227.08 666.779 1227.42 667.086 1227.75 667.548 1227.92 668.164 1227.92 668.521 1227.92 668.878 1227.85 669.236 1227.71 669.593 1227.57 669.976 1227.36 670.383 1227.06 670.79 1226.76 671.236 1226.38 671.723 1225.91 672.209 1225.44 672.751 1224.88 673.346 1224.23L675.372 1226.19C674.339 1227.25 673.401 1228.14 672.557 1228.86 671.713 1229.58 670.914 1230.18 670.159 1230.63 669.405 1231.09 668.665 1231.42 667.94 1231.62 667.215 1231.81 666.446 1231.91 665.632 1231.91 664.877 1231.91 664.197 1231.77 663.592 1231.5 662.986 1231.22 662.465 1230.84 662.028 1230.35 661.591 1229.86 661.253 1229.28 661.015 1228.61 660.777 1227.93 660.658 1227.19 660.658 1226.37 660.658 1225.72 660.737 1224.9 660.896 1223.93 661.055 1222.96 661.258 1221.9 661.507 1220.76 661.755 1219.62 662.028 1218.42 662.326 1217.17 662.624 1215.92 662.917 1214.68 663.204 1213.45 663.492 1212.22 663.75 1211.03 663.979 1209.89 664.207 1208.75 664.371 1207.71 664.47 1206.77 664.51 1206.62 664.53 1206.46 664.53 1206.31 664.53 1206.16 664.53 1206.03 664.53 1205.91 664.49 1205.14 664.217 1204.57 663.711 1204.21 663.204 1203.86 662.306 1203.66 661.015 1203.62L661.373 1201.59ZM668.283 1189.26 674.24 1189.26 672.78 1195.66 666.883 1195.66Z" fill-rule="evenodd"/><text fill="#000000" fill-opacity="0" font-family="Arial,Arial_MSFontService,sans-serif" font-size="42.6523" x="660.658" y="1226.58">𝑖</text><path d="M1506.14 1175.14C1507.24 1175.14 1508.19 1175.29 1508.97 1175.59 1509.51 1175.8 1510.05 1176.16 1510.59 1176.66 1511.13 1177.16 1511.61 1177.86 1512.03 1178.75 1512.45 1179.64 1512.82 1180.64 1513.13 1181.75 1513.44 1182.85 1513.78 1184.45 1514.16 1186.53 1514.81 1190.01 1515.44 1193.68 1516.04 1197.53 1516.65 1201.38 1517.17 1204.95 1517.6 1208.25 1520.23 1204.47 1522.45 1200.77 1524.27 1197.15 1526.1 1193.53 1527.41 1190.38 1528.2 1187.7 1529 1185.03 1529.4 1182.85 1529.4 1181.18 1529.4 1179.91 1529.13 1179.04 1528.59 1178.58 1528.05 1178.13 1527.13 1177.86 1525.83 1177.77L1526.24 1175.79 1536.9 1175.79 1537.99 1177.81C1535.94 1183.43 1533.15 1189.45 1529.64 1195.85 1526.18 1202.12 1522.22 1208.36 1517.77 1214.57 1513.5 1220.49 1509.95 1224.77 1507.11 1227.42 1505.14 1229.23 1503.23 1230.53 1501.39 1231.31 1499.93 1231.91 1498.38 1232.2 1496.73 1232.2 1496.17 1232.2 1495.51 1232.16 1494.77 1232.06 1494.02 1231.97 1493.45 1231.84 1493.05 1231.68L1494.79 1223.81 1497.99 1223.81C1497.99 1225.54 1498.58 1226.41 1499.77 1226.41 1501.34 1226.41 1503.16 1225.43 1505.24 1223.47 1507.32 1221.51 1509.77 1218.56 1512.58 1214.61 1511.8 1209.89 1510.73 1204.18 1509.38 1197.51 1507.95 1190.38 1507 1185.96 1506.54 1184.26 1505.97 1182.21 1505.38 1180.9 1504.76 1180.33 1504.38 1179.98 1503.91 1179.8 1503.34 1179.8 1502.47 1179.8 1501.66 1180.15 1500.91 1180.85 1500.15 1181.56 1499.22 1182.77 1498.11 1184.5L1495.48 1182.76C1497.34 1179.98 1499.08 1178.01 1500.7 1176.86 1502.33 1175.71 1504.14 1175.14 1506.14 1175.14Z" fill-rule="evenodd"/><text fill="#000000" fill-opacity="0" font-family="Arial,Arial_MSFontService,sans-serif" font-size="57.0625" x="1493.05" y="1225.07">𝑦</text><path d="M1550.97 1201.26 1552.43 1201.26 1548.02 1221.1C1547.74 1222.27 1547.55 1223.21 1547.44 1223.9 1547.33 1224.6 1547.27 1225.22 1547.27 1225.78 1547.27 1226.53 1547.43 1227.08 1547.73 1227.42 1548.04 1227.75 1548.5 1227.92 1549.12 1227.92 1549.48 1227.92 1549.83 1227.85 1550.19 1227.71 1550.55 1227.57 1550.93 1227.36 1551.34 1227.06 1551.75 1226.76 1552.19 1226.38 1552.68 1225.91 1553.17 1225.44 1553.71 1224.88 1554.3 1224.23L1556.33 1226.19C1555.3 1227.25 1554.36 1228.13 1553.51 1228.86 1552.67 1229.58 1551.87 1230.18 1551.12 1230.63 1550.36 1231.09 1549.62 1231.42 1548.9 1231.61 1548.17 1231.81 1547.4 1231.91 1546.59 1231.91 1545.83 1231.91 1545.15 1231.77 1544.55 1231.5 1543.94 1231.22 1543.42 1230.84 1542.98 1230.35 1542.55 1229.86 1542.21 1229.28 1541.97 1228.61 1541.73 1227.93 1541.61 1227.19 1541.61 1226.37 1541.61 1225.72 1541.69 1224.9 1541.85 1223.93 1542.01 1222.96 1542.21 1221.9 1542.46 1220.76 1542.71 1219.62 1542.98 1218.42 1543.28 1217.17 1543.58 1215.92 1543.87 1214.68 1544.16 1213.45 1544.45 1212.21 1544.71 1211.03 1544.94 1209.89 1545.16 1208.74 1545.33 1207.71 1545.43 1206.77 1545.47 1206.62 1545.49 1206.46 1545.49 1206.31 1545.49 1206.16 1545.49 1206.03 1545.49 1205.91 1545.45 1205.14 1545.17 1204.57 1544.67 1204.21 1544.16 1203.85 1543.26 1203.66 1541.97 1203.62L1542.33 1201.59ZM1549.24 1189.26 1555.2 1189.26 1553.74 1195.66 1547.84 1195.66Z" fill-rule="evenodd"/><text fill="#000000" fill-opacity="0" font-family="Arial,Arial_MSFontService,sans-serif" font-size="42.6523" x="1541.61" y="1226.58">𝑖</text><path d="M1599.29 1317.83C1601 1317.83 1602.34 1318.39 1603.33 1319.51 1604.31 1320.63 1604.81 1322.1 1604.81 1323.91 1604.81 1325.34 1604.48 1326.94 1603.83 1328.69L1604.32 1328.85C1606.97 1325.12 1609.49 1322.36 1611.88 1320.57 1614.27 1318.77 1616.73 1317.87 1619.27 1317.87 1621.79 1317.87 1623.72 1318.59 1625.07 1320.04 1626.42 1321.48 1627.1 1323.49 1627.1 1326.06 1627.1 1327.76 1626.7 1330.18 1625.92 1333.31L1623.29 1343.93C1622.56 1346.87 1622.19 1348.96 1622.19 1350.17 1622.19 1351.25 1622.37 1352.04 1622.72 1352.52 1623.07 1353.01 1623.62 1353.25 1624.38 1353.25 1625.19 1353.25 1626.06 1352.92 1626.97 1352.26 1627.89 1351.6 1629.19 1350.33 1630.86 1348.47L1633.17 1350.74C1630.85 1353.22 1628.82 1355.04 1627.1 1356.19 1625.37 1357.34 1623.39 1357.91 1621.18 1357.91 1619.42 1357.91 1618.02 1357.28 1616.96 1356.03 1615.91 1354.77 1615.38 1353.17 1615.38 1351.22 1615.38 1349.47 1615.83 1346.89 1616.72 1343.48L1618.5 1336.47C1619.15 1333.93 1619.58 1332.06 1619.78 1330.84 1619.98 1329.62 1620.08 1328.64 1620.08 1327.88 1620.08 1326.02 1619.77 1324.67 1619.15 1323.85 1618.53 1323.02 1617.52 1322.61 1616.11 1322.61 1614.98 1322.61 1613.76 1323.06 1612.44 1323.97 1611.13 1324.88 1609.74 1326.24 1608.27 1328.06 1606.8 1329.89 1605.62 1331.66 1604.72 1333.37 1603.83 1335.09 1603.1 1337.2 1602.54 1339.71L1598.69 1357.26 1591.67 1357.26 1597.59 1331.57C1598.19 1328.98 1598.48 1326.98 1598.48 1325.57 1598.48 1324.49 1598.31 1323.71 1597.96 1323.22 1597.61 1322.73 1597.05 1322.49 1596.29 1322.49 1595.46 1322.49 1594.57 1322.84 1593.64 1323.52 1592.71 1324.21 1591.43 1325.46 1589.81 1327.27L1587.5 1325C1589.99 1322.41 1592.05 1320.57 1593.7 1319.47 1595.35 1318.38 1597.21 1317.83 1599.29 1317.83Z" fill-rule="evenodd"/><text fill="#000000" fill-opacity="0" font-family="Arial,Arial_MSFontService,sans-serif" font-size="40.0815" x="1587.5" y="1352.9">𝑛</text><path d="M1162.68 883.845 1255.46 1085.53 1246.09 1089.84 1153.32 888.155ZM1262.67 1076.54 1261.55 1111.11 1234.57 1089.47Z"/><path d="M956 1188.84 1201.72 1188.84 1201.72 1199.16 956 1199.16ZM1196.56 1178.53 1227.5 1194 1196.56 1209.47Z"/></g></svg>